<svg xmlns="http://www.w3.org/2000/svg" width="26.863" height="28.509" viewBox="0 0 26.863 28.509">
  <path id="iconfinder_Home-01_1976053" d="M27.74,10.937,17.529,2.64a3.439,3.439,0,0,0-4.317,0h0L3,10.936a1.513,1.513,0,0,0-.563,1.181V27.728a1.53,1.53,0,0,0,1.522,1.528h6.846a1.53,1.53,0,0,0,1.522-1.528V17.847h6.085v9.881a1.53,1.53,0,0,0,1.522,1.528h6.846A1.53,1.53,0,0,0,28.3,27.728V12.116A1.517,1.517,0,0,0,27.74,10.937Zm-.96,16.8H19.933v-9.9a1.517,1.517,0,0,0-1.522-1.513H12.327a1.517,1.517,0,0,0-1.522,1.513v9.9H3.961V12.116l10.211-8.3a1.909,1.909,0,0,1,2.4,0l10.211,8.3v15.62Z" transform="translate(-1.939 -1.247)" fill="#f5c950" stroke="#f5c950" stroke-width="1"/>
</svg>
