<svg xmlns="http://www.w3.org/2000/svg" width="45.448" height="45.448" viewBox="0 0 45.448 45.448">
  <path id="iconfinder_00-ELASTOFONT-STORE-READY_user-circle_2703062" d="M46.448,23.724A22.724,22.724,0,1,0,7.957,40.052a1.387,1.387,0,0,0,.358.325,22.592,22.592,0,0,0,30.819,0,1.387,1.387,0,0,0,.358-.325A22.644,22.644,0,0,0,46.448,23.724ZM23.724,3.841A19.856,19.856,0,0,1,39.309,36.035c-1.232-3.973-4.749-7.083-9.522-8.514a10.365,10.365,0,1,0-12.126,0c-4.773,1.431-8.29,4.541-9.522,8.514A19.856,19.856,0,0,1,23.724,3.841ZM16.2,19.142a7.525,7.525,0,1,1,7.525,7.511A7.526,7.526,0,0,1,16.2,19.142ZM10.527,38.555c.427-5.207,5.949-9.061,13.2-9.061s12.771,3.854,13.2,9.061a19.763,19.763,0,0,1-26.395,0Z" transform="translate(-1 -1)" fill="#848484"/>
</svg>
