<svg xmlns="http://www.w3.org/2000/svg" width="23.339" height="23.316" viewBox="0 0 23.339 23.316">
  <g id="icons" transform="translate(0.513 0.5)">
    <path id="favorite" d="M14.131,2.669l2.559,5.562a1.176,1.176,0,0,0,.779.667l5.785.89a1.007,1.007,0,0,1,.667,1.78l-4.227,4.339a1.553,1.553,0,0,0-.334,1l1,6.007A1.117,1.117,0,0,1,18.8,24.139l-5.228-2.892a.834.834,0,0,0-1,0L7.345,24.139a1.074,1.074,0,0,1-1.557-1.224l1-6.007a1.121,1.121,0,0,0-.334-1L2.227,11.569a1.156,1.156,0,0,1,.667-1.891l5.785-.89a.954.954,0,0,0,.779-.667l2.559-5.562A1.207,1.207,0,0,1,14.131,2.669Z" transform="translate(-1.956 -1.987)" fill="none" stroke="#707070" stroke-width="1"/>
  </g>
</svg>
