<svg id="iconfinder_share2_1814119" xmlns="http://www.w3.org/2000/svg" width="24.274" height="24.274" viewBox="0 0 24.274 24.274">
  <g id="Icon-External-Link">
    <path id="Fill-118" d="M-353.437-357.24-354.6-358.4l13.047-13,1.113,1.113-13,13.047" transform="translate(364.411 371.703)" fill="#5c9cf5"/>
    <path id="Fill-119" d="M-334.452-363.352h-1.719v-6.928H-343.1V-372h8.648v8.648" transform="translate(358.726 372)" fill="#5c9cf5"/>
    <path id="Fill-120" d="M-354.075-346h-17.346A2.59,2.59,0,0,1-374-348.575v-17.346a2.59,2.59,0,0,1,2.579-2.579h9.558v1.719h-9.558a.886.886,0,0,0-.86.86v17.346a.886.886,0,0,0,.86.86h17.346a.886.886,0,0,0,.86-.86v-9.558h1.719v9.558A2.527,2.527,0,0,1-354.075-346" transform="translate(374 370.27)" fill="#5c9cf5"/>
  </g>
</svg>
